<svg xmlns="http://www.w3.org/2000/svg" width="32" height="32" viewBox="0 0 32 32">
    <g>
        <path fill="rgba(255,255,255,0)" d="M0 0H32V32H0z" transform="translate(-4899 1432) translate(4899 -1432)"/>
        <path fill="#ffac24" d="M27.547 10.235l-.243-.153a4.334 4.334 0 0 0-3.513-1.093 6.625 6.625 0 0 0-3.071 1.059v-.034a12.083 12.083 0 0 1 .09-1.258 12.569 12.569 0 0 0 .09-1.28 3 3 0 0 0-.192-1.164.228.228 0 0 0-.221-.139 3.365 3.365 0 0 0-1.416.464l-.106.232a9.134 9.134 0 0 1-.21 1.891l-.054.157a22.99 22.99 0 0 0-.017 4.808c.018.139.282.346.487.421a3.113 3.113 0 0 0 1.334-.257l.153-.023a.235.235 0 0 0 .2-.269l.01-.4a3.95 3.95 0 0 1 2.878-2.823 2 2 0 0 1 1.912.615 2.609 2.609 0 0 1-.311 1.938 3.993 3.993 0 0 1-2.188 1.725 8.372 8.372 0 0 1-3.348.471l-1.232-.833a17.853 17.853 0 0 0-3.513-2.089 4.288 4.288 0 0 1-.8-.57l-.12-.1c-.679-.544-1.968-1.4-3-2.092l-.558-.374v-.117c.032-.034.682-.423.682-.423a7.005 7.005 0 0 0 1.42-.929c-.019.022.121-.071.121-.071l2.259-1.279a27.674 27.674 0 0 0 5.91-3.875l.062-.2.029-.181a1.25 1.25 0 0 0 .019-.758.237.237 0 0 0-.176-.173 4.918 4.918 0 0 0-3.489 1.613 3.231 3.231 0 0 1-.727.5l-.18.1c-1.3.742-4.241 2.566-5.78 3.55a51.592 51.592 0 0 1 .784-5.971L11.48.617l-.159-.3L11.2.108 11.166.1a.976.976 0 0 0-.741-.046l-.307.114-.409.148a.219.219 0 0 0-.17.144 24.927 24.927 0 0 0-1.493 7.028A35.348 35.348 0 0 0 4.558 5.56l-.018-.011-.08-.017a2.5 2.5 0 0 1-.811-.376l-.559-.363-.852-.545c.007 0-.226-.051-.226-.051a2.667 2.667 0 0 0-1.277.856.272.272 0 0 0-.035.138.827.827 0 0 0 .038.2l.039.173.04.1a12.254 12.254 0 0 0 2.45 1.66l1.174.622 1.794.979c0 .009.307.243.307.243l.211.122.038.024C6.307 9.64 3.522 11.5 3.522 11.5l-1.717 1.138a9.963 9.963 0 0 1-.989.474 1.415 1.415 0 0 0-.771.638l-.046.1.047.065.132.1c-.006 0 .176.116.176.116l.19.129.178.029a4.548 4.548 0 0 0 1.584-.526c.767-.34 2.851-1.6 3.743-2.134l.381-.23a.828.828 0 0 0 .484-.235 4.6 4.6 0 0 1 .8-.485c.007 0 .142-.08.271-.149v.1a36.345 36.345 0 0 0 .493 6.234v.026l.029.064a6.739 6.739 0 0 1 .461 1.43l.34 1.138c.008.014.1.107.1.107a2.245 2.245 0 0 0 1.179.311l.1-.012.062-.138a2.713 2.713 0 0 0 .045-.521c0-.208-.016-.438-.034-.718l-.027-.41c-.125-1.9-.249-4.653-.249-6.477v-.146l1.737 1.093c2.407 1.562 6.043 3.921 8.24 4.545a.323.323 0 0 0 .318-.071c0-.006.339-.218.339-.218l.062-.028a.606.606 0 0 0 .227-.5c1.85-.092 4.434-.8 5.816-2.543a3.613 3.613 0 0 0 .776-2.2 1.873 1.873 0 0 0-.453-1.353" transform="translate(-4899 1432) translate(4901 -1425.792)"/>
    </g>
</svg>
